<?xml version="1.0" standalone="no"?><!DOCTYPE svg PUBLIC "-//W3C//DTD SVG 1.1//EN" "http://www.w3.org/Graphics/SVG/1.1/DTD/svg11.dtd"><svg t="1515081774266" class="icon" style="" viewBox="0 0 1024 1024" version="1.1" xmlns="http://www.w3.org/2000/svg" p-id="7052" xmlns:xlink="http://www.w3.org/1999/xlink" width="64" height="64"><defs><style type="text/css"></style></defs><path d="M153.856 140.448c-2.272-10.464-12.64-18.976-23.872-18.976h-90.528c-10.912 0-19.744-9.056-19.744-19.36v-4c0-10.688 8.992-19.36 19.84-19.36h98.112c27.2 0 52.416 21.728 56.288 48.448l11.552 79.712h749.44c27.264 0 46.016 22.016 41.984 48.672l-62.912 415.2c-4.064 26.88-29.44 48.672-56.608 48.672h-542.432c-27.2 0-54.112-21.376-60.256-48.224l-106.336-464.352-14.464-66.464zM411.36 993.568c39.456 0 71.456-33.408 71.456-74.624s-32-74.624-71.456-74.624-71.456 33.408-71.456 74.624 32 74.624 71.456 74.624zM756.32 993.792c39.52 0 71.584-33.472 71.584-74.752s-32.032-74.752-71.584-74.752c-39.52 0-71.584 33.472-71.584 74.752s32.032 74.752 71.584 74.752z" fill="#ea5a11" p-id="7053"></path></svg>