<?xml version="1.0" standalone="no"?><!DOCTYPE svg PUBLIC "-//W3C//DTD SVG 1.1//EN" "http://www.w3.org/Graphics/SVG/1.1/DTD/svg11.dtd"><svg t="1515075298083" class="icon" style="" viewBox="0 0 1024 1024" version="1.1" xmlns="http://www.w3.org/2000/svg" p-id="12561" xmlns:xlink="http://www.w3.org/1999/xlink" width="64" height="64"><defs><style type="text/css"></style></defs><path d="M985.635 345.834l-111.175 312.49c-15.504 43.467-56.903 72.697-103.115 72.697l-434.057 0c-52.08 0-97.204-37.087-107.321-88.146l-73.572-372.173-24.337-111.63-81.503 0c-12.978 0-23.47-10.45-23.47-23.385 0-12.978 10.5-23.429 23.47-23.429l100.383 0c0.734 0 1.362 0.371 2.058 0.421 1.654 0.151 3.19 0.449 4.752 0.94 1.41 0.451 2.695 0.912 3.964 1.617 1.376 0.704 2.525 1.525 3.728 2.478 1.209 0.95 2.235 1.901 3.226 3.059 0.905 1.117 1.692 2.317 2.385 3.597 0.783 1.396 1.453 2.809 1.94 4.334 0.212 0.704 0.713 1.249 0.875 1.983l24.339 111.708 714.316 0c25.159 0 48.847 12.234 63.333 32.771 14.578 20.543 18.161 46.956 9.77 70.684l0 0zM937.569 302.19c-5.797-8.226-14.916-12.978-25.029-12.978l-704.684 0 68.108 344.577c5.783 29.182 31.581 50.347 61.333 50.347l434.057 0c26.412 0 50.093-16.707 58.942-41.533l111.175-312.49c3.355-9.495 1.983-19.673-3.894-27.926l0 0zM320.258 781.837c52.159 0 94.562 42.339 94.562 94.413 0 52.08-42.411 94.448-94.562 94.448-52.119 0-94.515-42.372-94.515-94.448 0-52.065 42.39-94.413 94.515-94.413l0 0zM320.258 923.869c26.279 0 47.654-21.356 47.654-47.601 0-26.227-21.38-47.554-47.654-47.554-26.247 0-47.601 21.334-47.601 47.554 0 26.261 21.36 47.601 47.601 47.601l0 0zM738.069 781.837c52.137 0 94.529 42.339 94.529 94.413 0 52.08-42.39 94.448-94.529 94.448-52.1 0-94.497-42.372-94.497-94.448 0-52.065 42.403-94.413 94.497-94.413l0 0zM738.069 923.869c26.287 0 47.658-21.356 47.658-47.601 0-26.227-21.38-47.554-47.658-47.554-26.279 0-47.63 21.334-47.63 47.554-0.002 26.261 21.348 47.601 47.63 47.601l0 0z" p-id="12562"></path></svg>