<?xml version="1.0" standalone="no"?><!DOCTYPE svg PUBLIC "-//W3C//DTD SVG 1.1//EN" "http://www.w3.org/Graphics/SVG/1.1/DTD/svg11.dtd"><svg t="1515074828453" class="icon" style="" viewBox="0 0 1024 1024" version="1.1" xmlns="http://www.w3.org/2000/svg" p-id="10901" xmlns:xlink="http://www.w3.org/1999/xlink" width="64" height="64"><defs><style type="text/css"></style></defs><path d="M358.4 204.8 102.4 204.8C87.04 204.8 76.8 194.56 76.8 179.2l0 0c0-15.36 10.24-25.6 25.6-25.6l256 0c15.36 0 25.6 10.24 25.6 25.6l0 0C384 194.56 373.76 204.8 358.4 204.8z" p-id="10902"></path><path d="M358.4 563.2 102.4 563.2c-15.36 0-25.6-10.24-25.6-25.6l0 0c0-15.36 10.24-25.6 25.6-25.6l256 0c15.36 0 25.6 10.24 25.6 25.6l0 0C384 552.96 373.76 563.2 358.4 563.2z" p-id="10903"></path><path d="M921.6 924.16 102.4 924.16c-15.36 0-25.6-10.24-25.6-25.6l0 0c0-15.36 10.24-25.6 25.6-25.6l819.2 0c15.36 0 25.6 10.24 25.6 25.6l0 0C947.2 911.36 936.96 924.16 921.6 924.16z" p-id="10904"></path><path d="M965.12 688.64 814.08 537.6c56.32-43.52 94.72-115.2 94.72-192C908.8 209.92 798.72 102.4 665.6 102.4s-243.2 110.08-243.2 243.2S532.48 588.8 665.6 588.8c35.84 0 71.68-7.68 102.4-23.04l161.28 161.28c10.24 10.24 25.6 10.24 35.84 0l0 0C975.36 714.24 975.36 698.88 965.12 688.64zM473.6 345.6C473.6 238.08 560.64 153.6 665.6 153.6s192 87.04 192 192S770.56 537.6 665.6 537.6 473.6 450.56 473.6 345.6z" p-id="10905"></path></svg>