<?xml version="1.0" standalone="no"?><!DOCTYPE svg PUBLIC "-//W3C//DTD SVG 1.1//EN" "http://www.w3.org/Graphics/SVG/1.1/DTD/svg11.dtd"><svg t="1515081576940" class="icon" style="" viewBox="0 0 1024 1024" version="1.1" xmlns="http://www.w3.org/2000/svg" p-id="4933" xmlns:xlink="http://www.w3.org/1999/xlink" width="64" height="64"><defs><style type="text/css"></style></defs><path d="M43.008 220.16h265.728c24.064 0 43.008-17.92 43.008-40.448s-19.456-40.448-43.008-40.448h-265.728c-24.064 0-43.008 17.92-43.008 40.448 0 22.016 19.456 40.448 43.008 40.448zM43.008 632.32h347.136c24.064 0 43.008-17.92 43.008-40.448s-19.456-40.448-43.008-40.448h-347.136c-24.064 0-43.008 17.92-43.008 40.448s19.456 40.448 43.008 40.448zM43.008 972.288h937.472c24.064 0 43.008-17.92 43.008-40.448s-19.456-40.448-43.008-40.448H43.008c-24.064 0-43.008 17.92-43.008 40.448 0 22.016 19.456 40.448 43.008 40.448zM1006.08 608.768L912.384 510.464c40.448-48.128 69.632-112.128 69.632-179.712 0-153.6-124.928-278.528-278.528-278.528s-279.04 124.928-279.04 278.528S549.376 609.28 702.976 609.28c54.784 0 105.984-16.384 148.992-44.032l96.768 101.376c8.704 8.704 19.968 13.312 31.232 13.312 10.752 0 21.504-4.096 29.696-11.776 17.408-16.896 13.312-42.496-3.584-59.392z m-303.104-77.824c-110.592 0-200.704-90.112-200.704-200.704s90.112-200.704 200.704-200.704 200.704 90.112 200.704 200.704-90.112 200.704-200.704 200.704z" fill="#ea5a11" p-id="4934"></path></svg>