<?xml version="1.0" standalone="no"?><!DOCTYPE svg PUBLIC "-//W3C//DTD SVG 1.1//EN" "http://www.w3.org/Graphics/SVG/1.1/DTD/svg11.dtd"><svg t="1515081630822" class="icon" style="" viewBox="0 0 1024 1024" version="1.1" xmlns="http://www.w3.org/2000/svg" p-id="5725" xmlns:xlink="http://www.w3.org/1999/xlink" width="64" height="64"><defs><style type="text/css"></style></defs><path d="M512 32c-265.091 0-480 214.909-480 480 0 265.113 214.909 480 480 480s480-214.887 480-480c0-265.091-214.909-480-480-480zM648.211 512.022c0 72.371-56.618 130.997-127.898 135.382l-164.749 142.231-21.449-12.414 54.59-208.146c-8.094-17.389-12.938-36.633-12.938-57.054 0-72.37 56.596-130.997 127.853-135.403l164.814-142.233 21.449 12.349-54.612 208.191c8.094 17.41 12.938 36.633 12.938 57.097z" fill="#ea5a11" p-id="5726"></path><path d="M450.080 512c0 0 0 0 0 0 0 34.197 27.723 61.92 61.92 61.92 34.197 0 61.92-27.723 61.92-61.92 0 0 0 0 0 0 0 0 0 0 0 0 0-34.197-27.723-61.92-61.92-61.92-34.197 0-61.92 27.723-61.92 61.92s0 0 0 0z" fill="#ea5a11" p-id="5727"></path></svg>