<?xml version="1.0" standalone="no"?><!DOCTYPE svg PUBLIC "-//W3C//DTD SVG 1.1//EN" "http://www.w3.org/Graphics/SVG/1.1/DTD/svg11.dtd"><svg t="1515074869055" class="icon" style="" viewBox="0 0 1024 1024" version="1.1" xmlns="http://www.w3.org/2000/svg" p-id="11027" xmlns:xlink="http://www.w3.org/1999/xlink" width="64" height="64"><defs><style type="text/css"></style></defs><path d="M512 1024C229.888 1024 0 794.112 0 512S229.888 0 512 0s512 229.888 512 512S794.112 1024 512 1024zM512 46.592C255.488 46.592 46.592 255.488 46.592 512s208.896 465.408 465.408 465.408 465.408-208.896 465.408-465.408S768.512 46.592 512 46.592z" p-id="11028"></path><path d="M222.72 819.712c-6.144 0-11.776-2.56-16.384-6.656-6.656-6.656-8.704-17.408-4.608-26.112l180.736-398.336c2.56-5.12 6.656-9.216 11.776-11.776l398.336-180.736c8.704-4.096 19.456-2.048 26.112 4.608 6.656 6.656 8.704 17.408 4.608 26.112l-180.736 398.336c-2.56 5.12-6.656 9.216-11.776 11.776l-398.336 180.736C228.864 818.688 225.792 819.712 222.72 819.712zM420.864 415.744l-151.552 333.824 333.824-151.552 151.552-333.824L420.864 415.744z" p-id="11029"></path><path d="M511.488 567.808c-16.896 0-33.28-6.656-45.056-18.944-25.088-25.088-25.088-65.536 0-90.624 24.064-24.064 66.56-24.064 90.624 0 25.088 25.088 25.088 65.536 0 90.624C544.768 561.152 528.896 567.808 511.488 567.808zM511.488 474.624c-7.68 0-14.848 3.072-20.48 8.704-11.264 11.264-11.264 29.696 0 40.96 10.752 10.752 30.208 10.752 40.96 0 11.264-11.264 11.264-29.696 0-40.96C526.848 477.696 519.168 474.624 511.488 474.624z" p-id="11030"></path></svg>