<?xml version="1.0" standalone="no"?><!DOCTYPE svg PUBLIC "-//W3C//DTD SVG 1.1//EN" "http://www.w3.org/Graphics/SVG/1.1/DTD/svg11.dtd"><svg t="1515075262428" class="icon" style="" viewBox="0 0 1024 1024" version="1.1" xmlns="http://www.w3.org/2000/svg" p-id="11867" xmlns:xlink="http://www.w3.org/1999/xlink" width="64" height="64"><defs><style type="text/css"></style></defs><path d="M879.932958 578.742522c0.004093-14.130821-11.445668-25.586723-25.574443-25.592863h-0.008187c-14.125705 0-25.578536 11.449762-25.582629 25.574443l-0.084935 263.184882c0 1.648545 0.157589 3.298113 0.475837 4.919028 0.36532 1.868555 1.245362 13.359249-3.643989 19.294419-4.301975 5.22602-13.937416 6.324026-21.263259 6.324026-45.522754 0-142.015316 0.010233-188.029256 0.014326l-1.100053-192.389559c1.067307-9.205653 2.892884-39.391109-15.331158-60.727023-7.838518-9.180071-22.339775-20.11818-46.8991-20.118179h-3.720737c-0.092097-0.002047-0.185218-0.008186-0.277316-0.008187h-0.008186c-0.002047 0-9.913781 0.004093-30.928376 0.00614-21.014595-0.002047-30.925306-0.00614-30.928376-0.00614h-0.008186c-0.093121 0-0.184195 0.00614-0.277316 0.008187h-3.720737c-24.559324 0-39.060582 10.938109-46.900123 20.118179-18.224042 21.335913-16.398465 51.521369-15.331158 60.727023l-1.100053 192.389559c-46.012917-0.004093-142.506502-0.014326-188.029256-0.014326-7.264443 0-16.835417-1.079587-21.172185-6.213509-4.696971-5.56064-4.258996-16.039285-3.707434-19.532849 0.376576-1.746782 0.448208-2.975771 0.448207-4.793162l-0.083911-263.182835c-0.004093-14.126728-11.456925-25.574443-25.582629-25.574443h-0.008186c-14.128775 0.00614-25.579559 11.462041-25.574443 25.590816l0.083911 261.1966c-1.282201 9.339706-3.143594 36.874802 14.833831 58.710088 9.377569 11.388363 27.531002 24.964553 60.762839 24.964553 60.987965 0 213.462483 0.018419 213.462482 0.018419h0.00307c14.070446 0 25.501788-11.363804 25.58263-25.436297l1.255595-219.564451c0.008186-1.490956-0.052189-2.614545-0.300851-4.072755-0.889252-6.42124-0.198521-17.874072 3.39021-22.011294 1.239223-1.428534 3.920282-2.153034 7.968477-2.153034l34.933592-0.002047 34.934615 0.002047c4.047172 0 6.729255 0.723477 7.968478 2.153034 3.588731 4.137223 4.278439 15.589031 3.39021 22.011294-0.24764 1.459233-0.310061 2.579752-0.300852 4.072755l1.256619 219.564451c0.079818 14.072493 11.512183 25.438343 25.584676 25.436297 0 0 152.474518-0.018419 213.462483-0.018419 33.232859 0 51.385269-13.577213 60.762838-24.964553 17.977425-21.837332 16.116033-49.372428 14.833832-58.710088l0.082888-261.194553z" fill="" p-id="11868"></path><path d="M989.12269 523.030718L621.741805 128.234465c-5.43375-6.295373-42.235898-46.52457-96.866068-48.378799-38.978717-1.339506-76.317077 16.618476-110.989726 53.327503-92.250962 97.673456-365.022166 386.811403-367.76667 389.719636-9.695817 10.277054-9.224073 26.467788 1.054004 36.163605 10.276031 9.69991 26.467788 9.224073 36.163605-1.052981 2.744504-2.908233 275.505476-292.033901 367.745181-389.695077 24.022089-25.43425 48.132182-37.975878 71.670248-37.338359 34.077086 0.95372 58.951588 29.178524 60.186717 30.607057 0.357134 0.440021 0.568958 0.669242 0.970094 1.103123l367.755414 395.197389a25.519184 25.519184 0 0 0 18.733648 8.154719 25.494625 25.494625 0 0 0 17.42177-6.853074c10.345615-9.629302 10.926853-25.813896 1.302668-36.158489z" fill="" p-id="11869"></path></svg>