<?xml version="1.0" standalone="no"?><!DOCTYPE svg PUBLIC "-//W3C//DTD SVG 1.1//EN" "http://www.w3.org/Graphics/SVG/1.1/DTD/svg11.dtd"><svg t="1515074879180" class="icon" style="" viewBox="0 0 1024 1024" version="1.1" xmlns="http://www.w3.org/2000/svg" p-id="11152" xmlns:xlink="http://www.w3.org/1999/xlink" width="64" height="64"><defs><style type="text/css"></style></defs><path d="M900.079616 962.56l-40.96 0C848.459776 779.859968 697.360384 634.88 512 634.88S175.519744 779.859968 164.880384 962.56l-40.96 0c8.659968-166.060032 121.140224-304.539648 273.859584-351.479808C296.29952 566.939648 225.28 465.880064 225.28 348.16c0-158.359552 128.360448-286.72 286.72-286.72s286.72 128.360448 286.72 286.72c0 117.720064-71.01952 218.779648-172.499968 262.920192C778.940416 658.020352 891.419648 796.499968 900.079616 962.56zM757.76 348.16c0-135.740416-110.040064-245.76-245.76-245.76S266.24 212.419584 266.24 348.16c0 135.719936 110.040064 245.76 245.76 245.76S757.76 483.879936 757.76 348.16z" p-id="11153"></path></svg>