<?xml version="1.0" standalone="no"?><!DOCTYPE svg PUBLIC "-//W3C//DTD SVG 1.1//EN" "http://www.w3.org/Graphics/SVG/1.1/DTD/svg11.dtd"><svg t="1515081812533" class="icon" style="" viewBox="0 0 1024 1024" version="1.1" xmlns="http://www.w3.org/2000/svg" p-id="8438" xmlns:xlink="http://www.w3.org/1999/xlink" width="64" height="64"><defs><style type="text/css"></style></defs><path d="M943.9744 1022.42816a23.28576 23.28576 0 0 0 23.33184-23.2704c0-62.55104-12.0064-123.22816-35.73248-180.40832a463.79008 463.79008 0 0 0-97.4336-147.4304c-41.7792-42.61888-90.51136-76.11904-144.7424-99.52256a450.62656 450.62656 0 0 0-52.95104-19.02592 288.78336 288.78336 0 0 0 81.44384-57.2928c54.77888-54.656 84.94592-127.3088 84.94592-204.60544 0-77.29152-30.18752-149.9648-84.9408-204.60544C663.13216 31.61088 590.27968 1.536 512.81408 1.536 435.34336 1.536 362.5216 31.63648 307.72736 86.27712 252.95872 140.92288 222.78144 213.59616 222.78144 290.88256c0 77.28128 30.17728 149.95456 84.94592 204.60544A290.51904 290.51904 0 0 0 388.5568 552.4992a447.0272 447.0272 0 0 0-53.96992 19.30752c-54.2208 23.42912-102.91712 56.87808-144.7424 99.52768a463.01184 463.01184 0 0 0-97.43872 147.4304c-23.70048 57.18016-35.712 117.87264-35.712 180.40832a23.296 23.296 0 0 0 23.30624 23.28064H943.9744v-0.0256z" p-id="8439" fill="#ea5a11"></path></svg>